<svg xmlns="http://www.w3.org/2000/svg" viewBox="0 0 400 600" fill="none">
  <title>Minha Paróquia</title>

  <!-- LUZ — estrela de oito pontas -->
  <path d="M200 6 Q205 51 250 56 Q205 61 200 106 Q195 61 150 56 Q195 51 200 6 Z" fill="#C9A44C"/>
  <path d="M200 24 Q203 53 232 56 Q203 59 200 88 Q197 59 168 56 Q197 53 200 24 Z" fill="#C9A44C" transform="rotate(45 200 56)"/>

  <!-- PERTENCIMENTO — portal externo e arco interno -->
  <path d="M46 396 V242 A154 154 0 0 1 354 242 V396" stroke="#4A1D7A" stroke-width="20" stroke-linecap="round"/>
  <path d="M80 396 V242 A120 120 0 0 1 320 242 V396" stroke="#C9A44C" stroke-width="5" stroke-linecap="round"/>

  <!-- CRISTO — a cruz -->
  <path d="M191 140 h18 v46 h39 v18 h-39 v152 h-18 v-152 h-39 v-18 h39 z" fill="#C9A44C"/>

  <!-- COMUNIDADE — sete figuras -->
  <g fill="#4A1D7A">
    <circle cx="72" cy="284" r="14"/>
    <path d="M54 404 V322 A18 18 0 0 1 90 322 V404 Z"/>
    <circle cx="328" cy="284" r="14"/>
    <path d="M310 404 V322 A18 18 0 0 1 346 322 V404 Z"/>
    <circle cx="106" cy="274" r="17"/>
    <path d="M85 404 V312 A21 21 0 0 1 127 312 V404 Z"/>
    <circle cx="294" cy="274" r="17"/>
    <path d="M273 404 V312 A21 21 0 0 1 315 312 V404 Z"/>
    <circle cx="150" cy="262" r="20"/>
    <path d="M125 404 V302 A25 25 0 0 1 175 302 V404 Z"/>
    <circle cx="250" cy="262" r="20"/>
    <path d="M225 404 V302 A25 25 0 0 1 275 302 V404 Z"/>
    <circle cx="200" cy="248" r="24"/>
    <path d="M170 404 V290 A30 30 0 0 1 230 290 V404 Z"/>
  </g>

  <!-- SERVIÇO — as mãos que sustentam -->
  <g fill="#4A1D7A">
    <path d="M64 302 C42 334 42 384 84 404 C124 422 172 404 200 370 L189 346 C160 375 116 377 91 353 C72 335 66 317 64 302 Z"/>
    <path d="M64 302 C42 334 42 384 84 404 C124 422 172 404 200 370 L189 346 C160 375 116 377 91 353 C72 335 66 317 64 302 Z" transform="matrix(-1 0 0 1 400 0)"/>
  </g>

  <!-- CAMINHADA — o caminho dourado -->
  <path d="M178 330 C172 358 192 372 198 396 C203 416 192 428 168 436 L216 436 C232 418 236 394 226 372 C216 350 200 342 206 330 Z" fill="#C9A44C"/>

  <!-- MARCA NOMINAL -->
  <g>
    <line x1="40" y1="486" x2="110" y2="486" stroke="#C9A44C" stroke-width="1.5"/>
    <path d="M122 480 l3 5 5 1 -5 1 -3 5 -3 -5 -5 -1 5 -1 z" fill="#C9A44C"/>
    <line x1="290" y1="486" x2="360" y2="486" stroke="#C9A44C" stroke-width="1.5"/>
    <path d="M278 480 l3 5 5 1 -5 1 -3 5 -3 -5 -5 -1 5 -1 z" fill="#C9A44C"/>
    <text x="200" y="494" text-anchor="middle" fill="#C9A44C"
          font-family="Cormorant Garamond, Garamond, Georgia, serif"
          font-size="22" font-weight="500" letter-spacing="8">MINHA</text>
    <text x="200" y="562" text-anchor="middle" fill="#4A1D7A"
          font-family="Cormorant Garamond, Garamond, Georgia, serif"
          font-size="58" font-weight="600" letter-spacing="1">PARÓQUIA</text>
  </g>
</svg>
